<?xml version="1.0" encoding="utf-8"?>
<!-- Generator: Adobe Illustrator 23.0.0, SVG Export Plug-In . SVG Version: 6.00 Build 0)  -->
<svg version="1.1" id="fd59ce54-f850-4dfc-bc34-dd7d379d600e"
	 xmlns="http://www.w3.org/2000/svg" xmlns:xlink="http://www.w3.org/1999/xlink" x="0px" y="0px" viewBox="0 0 1262.9 762.1"
	 style="enable-background:new 0 0 1262.9 762.1;" xml:space="preserve">
<style type="text/css">
	.st0{fill:#2F2E41;}
	.st1{fill:#8B50FF;}
	.st2{opacity:0.1;enable-background:new    ;}
	.st3{fill:#3F3D56;}
	.st4{fill:#FBBEBE;}
	.st5{fill:#57B894;}
	.st6{fill:none;stroke:#3F3D56;stroke-miterlimit:10;}
	.st7{fill:#FFFFFF;}
	.st8{opacity:0.3;fill:#8B50FF;enable-background:new    ;}
	.st9{opacity:5.000000e-02;fill:#8B50FF;}
</style>
<path class="st0" d="M614.7,256C528.7,256,467,311.1,467,439.7c0,145.8,61.7,184.4,147.7,184.4S766,581.9,766,439.7
	C766,287.8,700.6,256,614.7,256z M615.2,575.8c-59.5,0-90.6-34.9-90.6-135.9c0-89.1,32.4-136.1,91.9-136.1s91.9,30.9,91.9,136.1
	C708.4,538.3,674.8,575.8,615.2,575.8z"/>
<path class="st1" d="M415.5,522.5H380V417.8c0-11.6-9.4-21-21-21h-8.3c-11.6,0-21,9.4-21,21l0,0v104.6H229.5c-6.6,0-12-5.4-12-12
	c0-1.9,0.5-3.9,1.4-5.6L325,304.1c5.4-10.2,1.5-22.9-8.7-28.3c-0.3-0.1-0.6-0.3-0.8-0.4l-6.3-3c-10.1-4.8-22.2-0.8-27.4,9.1
	l-129.4,242c-2.2,4.1-3.4,8.7-3.4,13.4l0,0c0,15.7,12.7,28.4,28.4,28.4c0,0,0,0,0,0h152.3v66.2c0,13.9,11.2,25.1,25.1,25.1l0,0h0
	c13.9,0,25.1-11.2,25.1-25.1l0,0v-66.2h35.5c11.8,0,21.4-9.6,21.4-21.4l0,0C437,532.1,427.4,522.5,415.5,522.5L415.5,522.5z"/>
<path class="st1" d="M1073.5,522.5H1038V417.8c0-11.6-9.4-21-21-21h-8.3c-11.6,0-21,9.4-21,21l0,0v104.6H887.5c-6.6,0-12-5.4-12-12
	c0-1.9,0.5-3.9,1.4-5.6L983,304.1c5.4-10.2,1.5-22.9-8.7-28.3c-0.3-0.1-0.6-0.3-0.8-0.4l-6.3-3c-10.1-4.8-22.2-0.8-27.4,9.1
	l-129.4,242c-2.2,4.1-3.4,8.7-3.4,13.4l0,0c0,15.7,12.7,28.4,28.4,28.4l0,0h152.3v66.2c0,13.9,11.2,25.1,25.1,25.1c0,0,0,0,0,0l0,0
	c13.9,0,25.1-11.2,25.1-25.1c0,0,0,0,0,0v-66.2h35.5c11.8,0,21.4-9.6,21.4-21.4l0,0l0,0C1095,532.1,1085.4,522.5,1073.5,522.5
	L1073.5,522.5z"/>
<circle class="st0" cx="565.4" cy="107.2" r="12.9"/>
<ellipse class="st0" cx="596.8" cy="135.8" rx="36.2" ry="46.9"/>
<path class="st2" d="M596.8,168.6c-18.1,0-33.1-17.3-35.8-39.8c-0.3,2.4-0.4,4.7-0.4,7.1c0,25.9,16.2,46.9,36.2,46.9
	s36.2-21,36.2-46.9c0-2.4-0.1-4.7-0.4-7.1C630,151.3,615,168.6,596.8,168.6z"/>
<path class="st3" d="M670.5,273.1c-0.8,3.2-4.1,5.8-7.8,7.5c-7.8,3.8-17.4,4.9-26.8,5.3c-2.4,0.1-4.8,0.1-7.1-0.1
	c-4.6-0.4-8.9-2.4-12.3-5.6c-0.8-0.5-1-1.5-0.5-2.3c0.1-0.2,0.3-0.4,0.5-0.5c5-5.5,13.3-8.8,21.6-11.2c6.3-1.8,17.4-6.6,24.3-5.9
	C669.1,260.8,671.5,269.1,670.5,273.1z"/>
<path class="st2" d="M670.5,273.1c-0.8,3.2-4.1,5.8-7.8,7.5c-7.8,3.8-17.4,4.9-26.8,5.3c-2.4,0.1-4.8,0.1-7.1-0.1
	c-4.6-0.4-8.9-2.4-12.3-5.6c-0.8-0.5-1-1.5-0.5-2.3c0.1-0.2,0.3-0.4,0.5-0.5c5-5.5,13.3-8.8,21.6-11.2c6.3-1.8,17.4-6.6,24.3-5.9
	C669.1,260.8,671.5,269.1,670.5,273.1z"/>
<path class="st3" d="M571.3,249.3c-2.4,4.7-2.8,10.1-1.2,15.1c1.6,4.9,4.7,9.3,8.8,12.5c10.1,8.1,24,9.2,36.9,9.1
	c11.3-0.1,22.7-0.9,33.9-2.3c3.8-0.3,7.5-1.2,11-2.6c4.2-1.8,7.9-5.2,9.4-9.5s0.4-9.7-3.1-12.6c-3.1-2.5-7.5-2.9-11.5-3.1l-23.1-1.4
	c2.3-2.3,5.3-3.6,8.1-5.3c3.7-2.2,6.1-6,8.8-9.3c4.1-4.9,8.6-9.6,13.4-13.8c0.8,4.3,3.5,7.8,6.7,10.8s6.9,5.4,10.2,8.2
	c8.1,6.9,13.9,16.2,22.4,22.5c5.8-1.5,11.3-4.3,16-8l-3.3-6c-0.3-0.6-0.7-1.2-1.2-1.6c-0.9-0.6-2.1-0.3-3.2-0.4
	c-2.9-0.4-4.2-3.8-5.3-6.5c-3.1-7.4-9.1-13.2-14.2-19.4c-3.8-4.6-7.1-9.5-10-14.7c-1.7-3.1-3.3-6.3-5.6-9s-5.6-4.8-9.1-4.8
	c-3.1,0-6,1.6-8.7,3.2c-8.2,4.9-16.1,10.2-23.6,16.1c-3.9,3.1-7.9,6.3-12.5,8.2c-1.9,0.8-4,1.3-5.9,2.3c-3.3,1.7-5.8,4.5-8.4,7.1
	C597.5,242.9,584.4,248.8,571.3,249.3z"/>
<path class="st4" d="M619.6,185c-0.1,2.8-0.7,5.5-1.7,8c-1.1,2.6-3.2,4.6-5.8,5.6c-1.8,0.5-3.8,0.6-5.6,0.2
	c-1.6-0.2-3.2-0.7-4.6-1.6c-2.2-1.5-3.2-4.1-3.6-6.7c-0.4-2.6-0.2-5.2-0.5-7.9c-0.2-2.1-0.6-4.2-1.2-6.3c-0.2-0.7-0.3-1.4-0.5-2
	c-0.2-0.7-0.3-1.4-0.5-2c-0.1-0.6-0.3-1.3-0.4-1.9c-0.1-0.5-0.2-1.1-0.2-1.6c-0.1-1.6-0.3-3.3-0.8-4.8c-0.5-1-1-2-1.7-2.9
	c-0.3-0.4-0.6-0.8-0.8-1.2c-0.7-1.1-1.1-2.4-1-3.7c0-0.2,0.1-0.4,0.1-0.6c0-0.1,0.1-0.2,0.1-0.2c0.6-0.2,1-0.6,1.2-1.1
	c0.1-0.6,0.1-1.2-0.1-1.8c-0.2-0.8-0.6-1.6-1-2.3c-0.3-0.5-1.2-1.3-1.2-1.9c0-1.1,2.1-2,3-2.4c2.7-1.3,5.6-1.9,8.6-1.7
	c1.9,0.1,4,0.7,5,2.3c0.9,1.4,0.8,3.3,1.2,5c0,0.2,0.1,0.5,0.3,0.7c0.2,0.2,0.5,0.3,0.7,0.3c0.5,0.1,0.9,0.1,1.4,0.1h0
	c0.1,0,0.2,0,0.4-0.1c0.7-0.1,1.4-0.4,2-0.9c0.4-0.1,0.8-0.2,1.2-0.3c0,0,0,0,0,0c1.6,5,1.8,10.3,3.1,15.4c0.6,2.5,1.6,5,1.7,7.6
	c0,0.1,0,0.2,0,0.3c0,0.8,0,1.7,0,2.5c0,0.4,0.1,0.7,0.1,1.1c0.1,0.6,0.3,1.2,0.5,1.7l0,0c0.1,0.2,0.1,0.4,0.2,0.6
	c0,0.1,0.1,0.3,0.1,0.4l0,0C619.7,182.2,619.7,183.6,619.6,185z"/>
<circle class="st4" cx="597.5" cy="133.9" r="18.6"/>
<path class="st4" d="M715.3,235.1c-0.5-5.1-2.3-9.9-5.2-14.1c0.5,2.9,1,5.7,1.4,8.6c-1.2,0.4-2.6-0.1-3.4-1c-0.8-1-1.4-2.1-1.8-3.3
	c-2.1-5.2-4.9-10.2-8.2-14.7c-11.8-1-23.5-5.9-33.9-11.6c-10.4-5.7-20.1-12.6-30.4-18.5c-1.8-1.1-3.6-2-5.5-2.8
	c-3.2-1.3-6.8-2-9.9-3.5c-0.2-0.1-0.4-0.2-0.6-0.3c-0.7-0.4-1.3-0.8-1.9-1.3c-0.3-0.3-0.6-0.6-0.9-0.9c-1.5-1.8-2.7-3.8-3.6-6
	c-1.6-3.6-2.2-8-3.8-11.6c0.7-0.7,1.6-1.3,2.5-1.8h0c0.1-0.1,0.3-0.1,0.4-0.2c0.6-0.3,1.3-0.5,2-0.7c0.4-0.1,0.8-0.2,1.2-0.3
	c0,0,0,0,0,0c1.8-0.3,3.7-0.2,5.5,0.4c2.6,0.9,4.8,2.6,6.9,4.3c3.5,2.5,6.9,5.2,10.1,8c1.8,1.7,3.4,3.6,5.4,5.2
	c1.6,1.2,3.3,2.4,5.1,3.4c10.4,6.2,20.9,12.4,31.3,18.7c3.5,2.1,7.1,4.2,10.5,6.4c5.2,3.4,10.3,7.1,15.4,10.7c3,2.2,6,4.3,8.9,6.5
	c1,0.6,1.8,1.4,2.5,2.3c0.6,1.1,1,2.2,1.1,3.4C717.3,225.4,716.9,230.4,715.3,235.1z"/>
<path class="st1" d="M624.2,199c-1.3,5.6-6.9,9-9.9,13.9c-3.7,6.1-2.2,13.2-0.8,20.3c-2.5,2.2-5.1,4.4-7.6,6.5
	c-1.4,1.2-2.8,2.4-4.3,3.5c-2.2,1.5-4.5,2.8-6.9,3.9c-2.2,1.2-4.5,2.3-6.7,3.5c-2.1,1.2-4.3,2.1-6.6,2.8c-4.4,1.1-9.1,0.3-13.5-1
	c-0.5-0.1-1-0.3-1.5-0.6c-0.3-0.2-0.5-0.4-0.7-0.6c-0.4-0.8-0.6-1.7-0.4-2.5c0.4-7.4,2.2-14.5,4-21.7c1-4.3,2.2-8.5,3.8-12.6
	c1.6-3.5,3.4-6.9,5.4-10.2c2.2-4.1,4.9-8,7.9-11.5c1.5-1.4,2.7-3,3.7-4.7c1.1-2.5,0.7-5.5,0.9-8.2c0.2-2.1,0.7-4.1,1.6-6v0
	c0.5-1,1.1-2,1.7-2.9c0.3,0.7,0.6,1.4,0.9,2.1c0.2,0.5,0.4,0.9,0.6,1.4c0.3,0.6,0.5,1.2,0.8,1.8c0.7,1.7,1.5,3.4,2.2,5.1
	c0.8,2.1,1.9,4.2,3.3,5.9c2.1,2.9,6.1,3.6,9.1,1.6c0.9-0.6,1.6-1.4,2.1-2.4c1.1-1.9,1.8-3.9,2.3-6c0.6-2.6,0.7-5.2,0.3-7.8
	c-0.8-5-2.9-10.1-4.4-14.8c-0.6-1.6-1-3.2-1.1-4.9c0-0.2,0-0.4,0.1-0.6c0,0,0-0.1,0-0.1c0.6-0.3,1.3-0.5,2-0.7
	c0.4-0.1,0.8-0.2,1.2-0.3c1.4,7.4,2.7,14.8,4.1,22.1c0,0.2,0.1,0.3,0.1,0.5c0.2,1.1,0.4,2.1,0.6,3.2c0.2,1,0.4,1.9,0.7,2.9l0,0
	c0.1,0.3,0.2,0.6,0.3,1l0,0c0.2,0.9,0.5,1.7,0.8,2.6C622.1,188.5,625.3,193.7,624.2,199z"/>
<path class="st3" d="M699.5,277.9c-0.1,1.1,0.2,2.2,0.6,3.1c1.2,2.1,3.9,2.6,6.4,2.8c14.1,1.2,28.3,0.7,42.3-1.3
	c0.8-0.1,1.5-0.3,2.2-0.7c2-1.4,0.8-4.8-1.4-5.9s-4.8-0.8-7.1-1.3c-2.4-0.6-4.6-1.6-6.7-2.9c-4.8-2.8-9.6-5.7-14.3-8.7
	c-2.8-1.8-6.1-3.7-9.2-2.6C703.6,263.4,699.4,268.7,699.5,277.9z"/>
<path class="st4" d="M595.6,171.9L595.6,171.9c0,0.1,0,0.3-0.1,0.4c0,0.2-0.1,0.4-0.1,0.6c-0.4,2-0.9,4-1.4,6
	c-1.5,5.5-3.5,10.8-5.5,16.1c-5.4,14.2-10.8,28.4-16.2,42.6c-1.4,3.6-2.7,7.2-4.3,10.7c-0.5,1.2-1,2.3-1.6,3.5
	c-1.9,4.3-3.7,8.7-4.3,13.2c-0.6,3-0.6,6-0.2,9c0.6,3,2.4,5.9,5.2,7c1.4,0.5,3.4,1.3,3,2.7c-0.2,0.8-1.1,1.2-1.9,1.3
	c-2.1,0.3-4.3-0.3-6-1.7c-1.5-1.3-2.7-3.4-4.7-3.6c-1.4-0.2-2.7,0.7-3.9,1.3c-5.2,2.4-11.2,0.7-16.7-1c0.4-2.2,2.6-3.7,4.8-4.1
	c2.2-0.4,4.5-0.1,6.7-0.2c0.7,0,1.4-0.1,2-0.5c0.5-0.5,0.9-1.2,1.1-1.9c1.4-4.3,2.5-8.7,3.2-13.1c0.7-4.7,1-9.4,2.1-14
	c0.8-3.6,2-7.1,3.1-10.6c2.1-7.3,3.7-14.6,5.1-22.1c0.7-3.1,1.1-6.2,1.4-9.4c0.2-2.6,0.1-5.2,0.3-7.8c0.4-3.4,1.1-6.7,2.1-10
	c1-3.6,1.9-7.1,2.9-10.7c1.4-5.3,3-10.7,6.6-14.8c2.5-2.9,6.2-4.6,10-4.8c0.7,0,1.4,0.1,2.1,0.2c0.1,0,0.2,0.1,0.3,0.1
	c0.8,0.2,1.5,0.5,2.2,0.9c1.1-0.7,1.7-0.5,2.4,0.6c0.6,1.2,1,2.5,0.9,3.8C596.5,165,596.3,168.5,595.6,171.9z"/>
<path class="st1" d="M596.8,176.1L596.8,176.1l-0.3,0.3l-2.5,2.5l-1.2-5.2l-4.3-17.9c0.7,0,1.4,0.1,2.1,0.2c0-0.2,0.1-0.4,0.1-0.6
	l0.2,0.7l1.4,4.9l2.7,9.3l0.5,1.5v0L596.8,176.1z"/>
<path class="st0" d="M612.9,119.1c0,3.3-1.3,6.5-3.7,8.9c-0.4,0.4-0.9,0.8-1.4,1.2c-2.2,1.6-4.8,2.5-7.5,2.5h-15.1
	c-7,0-12.6-5.7-12.6-12.6c0-6.9,5.6-12.6,12.6-12.6h15.1C607.2,106.6,612.9,112.2,612.9,119.1z"/>
<circle class="st0" cx="627.1" cy="107.2" r="12.9"/>
<path class="st2" d="M626.7,94.3c-0.2,0-0.3,0-0.5,0c7.1,0.3,12.7,6.2,12.4,13.4c-0.2,6.8-5.7,12.2-12.4,12.4c0.2,0,0.3,0,0.5,0
	c7.1,0,12.9-5.8,12.9-12.9C639.6,100.1,633.9,94.3,626.7,94.3z"/>
<path class="st2" d="M565.4,94.3c0.2,0,0.3,0,0.5,0c-7.1,0.3-12.7,6.2-12.4,13.4c0.2,6.8,5.7,12.2,12.4,12.4c-0.2,0-0.3,0-0.5,0
	c-7.1,0-12.9-5.8-12.9-12.9C552.5,100.1,558.3,94.3,565.4,94.3z"/>
<path class="st2" d="M607.8,129.2c-2.2,1.6-4.8,2.5-7.5,2.5h-15.1c-2.7,0-5.4-0.9-7.5-2.5H607.8z"/>
<path class="st4" d="M705.3,222.7c0,0,3.3,9.4,6.2,6.9l-2.4-12.2L705.3,222.7z"/>
<path class="st5" d="M1101.1,508.5c10.8,3.9,22.7-1.6,26.7-12.4c3.9-10.8-1.6-22.7-12.4-26.7c-3.7-1.3-7.6-1.6-11.5-0.8l0.5,10.7
	l-5.1-9.2c-5,2.3-8.8,6.6-10.7,11.7c-0.7,1.8-1.1,3.7-1.2,5.6C1086.8,496.7,1092.4,505.3,1101.1,508.5z"/>
<path class="st6" d="M1126.2,632.7c-1.8-9.1,6-17.2,13.6-22.4s16.6-10.4,19.2-19.3c3.8-12.8-7.4-24.5-16.1-34.6
	c-6.5-7.5-12-15.7-16.5-24.6c-1.8-3.5-3.5-7.2-4-11.2c-0.7-5.7,1.1-11.3,3-16.7c6.1-18,12.7-35.9,19.6-53.7"/>
<path class="st5" d="M1123.6,446.5c2.4-6.7,8.1-11.6,15-13.2l1.7,10.2l3.2-10.7c11.5,0.2,20.7,9.6,20.5,21.1
	c-0.2,11.5-9.6,20.7-21.1,20.5c-11.5-0.2-20.7-9.6-20.5-21.1C1122.4,451,1122.8,448.7,1123.6,446.5z"/>
<path class="st5" d="M1139.2,556.5c10.8,3.9,22.7-1.7,26.7-12.5c3.3-9.1-0.1-19.3-8.2-24.6l-2.4,8.2l-1.7-10.3c0,0,0,0-0.1,0
	c-10.8-3.9-22.7,1.7-26.7,12.5C1122.8,540.7,1128.4,552.6,1139.2,556.5C1139.2,556.5,1139.2,556.5,1139.2,556.5L1139.2,556.5z"/>
<path class="st5" d="M1117.6,591.1c2,11.3,12.8,18.9,24.1,16.9s18.9-12.8,16.9-24.1c-2-11.3-12.8-18.9-24.1-16.9
	c-5.1,0.9-9.7,3.7-12.9,7.8l9.3,14l-12.7-7.4C1117.2,584.5,1117,587.9,1117.6,591.1z"/>
<path class="st5" d="M103.2,559.2c7.1,2.6,14.9-1.1,17.5-8.2c2.6-7.1-1.1-14.9-8.2-17.5c-2.4-0.9-5-1.1-7.5-0.5l0.3,7l-3.3-6
	c-3.3,1.5-5.8,4.3-7,7.7c-0.4,1.2-0.7,2.4-0.8,3.7C93.8,551.5,97.5,557.1,103.2,559.2z"/>
<path class="st6" d="M119.7,640.8c-1.2-6,3.9-11.3,8.9-14.7c5-3.4,10.9-6.8,12.6-12.7c2.5-8.4-4.9-16.1-10.6-22.8
	c-4.2-4.9-7.9-10.3-10.9-16.1c-1.3-2.3-2.2-4.8-2.6-7.3c-0.5-3.7,0.7-7.4,2-11c4-11.8,8.3-23.6,12.9-35.2"/>
<path class="st5" d="M118,518.5c1.6-4.4,5.3-7.6,9.8-8.7l1.1,6.7l2.1-7c7.6,0.1,13.6,6.3,13.5,13.9s-6.3,13.6-13.9,13.5
	s-13.6-6.3-13.5-13.9C117.3,521.4,117.5,519.9,118,518.5z"/>
<path class="st5" d="M128.3,590.8c7.1,2.6,14.9-1.1,17.5-8.2c2.2-6-0.1-12.7-5.4-16.1l-1.6,5.4l-1.1-6.8c0,0,0,0,0,0
	c-7.1-2.6-14.9,1.1-17.5,8.2C117.5,580.3,121.2,588.2,128.3,590.8C128.3,590.8,128.3,590.8,128.3,590.8z"/>
<path class="st5" d="M114.1,613.5c1.3,7.4,8.4,12.4,15.8,11.1c7.4-1.3,12.4-8.4,11.1-15.8c-1.3-7.4-8.4-12.4-15.8-11.1
	c-3.4,0.6-6.4,2.4-8.5,5.1l6.1,9.2l-8.3-4.9C113.8,609.1,113.7,611.3,114.1,613.5z"/>
<ellipse class="st0" cx="575.2" cy="408.1" rx="17" ry="22"/>
<ellipse class="st0" cx="667.7" cy="408.6" rx="17" ry="22"/>
<path class="st0" d="M654.7,473.6c0,9.9-13.9,18-31,18s-31-8.1-31-18c0-8.6,10.4-15.8,24.3-17.6c2.2-0.3,4.4-0.4,6.7-0.4
	c3.7,0,7.5,0.4,11.1,1.2C646.4,459.3,654.7,465.9,654.7,473.6z"/>
<path class="st7" d="M635.2,458.3c0,1.3-0.5,2.5-1.3,3.4c-0.8,0.9-2,1.4-3.2,1.4h-10c-2.6-0.1-4.6-2.2-4.5-4.8c0-1,0.3-1.9,0.8-2.7
	c2.2-0.3,4.4-0.5,6.7-0.5c3.7,0,7.5,0.4,11.1,1.3C635.1,456.9,635.2,457.6,635.2,458.3z"/>
<circle class="st7" cx="579.2" cy="397.1" r="5"/>
<circle class="st7" cx="672.2" cy="397.1" r="5"/>
<circle class="st8" cx="677.2" cy="444.1" r="5"/>
<circle class="st8" cx="555.2" cy="444.1" r="5"/>
<ellipse class="st9" cx="622.9" cy="664.4" rx="599.3" ry="57.2"/>
</svg>
